<?xml version="1.0" encoding="UTF-8" standalone="no"?>
<!-- Created with Inkscape (http://www.inkscape.org/) -->

<svg
   xmlns:dc="http://purl.org/dc/elements/1.1/"
   xmlns:cc="http://creativecommons.org/ns#"
   xmlns:rdf="http://www.w3.org/1999/02/22-rdf-syntax-ns#"
   xmlns:svg="http://www.w3.org/2000/svg"
   xmlns="http://www.w3.org/2000/svg"
   xmlns:sodipodi="http://sodipodi.sourceforge.net/DTD/sodipodi-0.dtd"
   xmlns:inkscape="http://www.inkscape.org/namespaces/inkscape"
   width="367.14001"
   height="367.13998"
   viewBox="0 0 367.14001 367.13998"
   version="1.1"
   id="svg2216"
   inkscape:version="0.92.3 (2405546, 2018-03-11)"
   sodipodi:docname="circle.svg">
  <defs
     id="defs2210" />
  <sodipodi:namedview
     id="base"
     pagecolor="#ffffff"
     bordercolor="#666666"
     borderopacity="1.0"
     inkscape:pageopacity="0.0"
     inkscape:pageshadow="2"
     inkscape:zoom="1.4"
     inkscape:cx="128.40776"
     inkscape:cy="196.06567"
     inkscape:document-units="px"
     inkscape:current-layer="layer1"
     showgrid="false"
     units="px"
     inkscape:window-width="1280"
     inkscape:window-height="737"
     inkscape:window-x="-8"
     inkscape:window-y="-8"
     inkscape:window-maximized="1"
     fit-margin-top="10"
     fit-margin-left="10"
     fit-margin-bottom="10"
     fit-margin-right="10"
     inkscape:showpageshadow="false"
     scale-x="1" />
  <metadata
     id="metadata2213">
    <rdf:RDF>
      <cc:Work
         rdf:about="">
        <dc:format>image/svg+xml</dc:format>
        <dc:type
           rdf:resource="http://purl.org/dc/dcmitype/StillImage" />
        <dc:title></dc:title>
      </cc:Work>
    </rdf:RDF>
  </metadata>
  <g
     inkscape:label="Layer 1"
     inkscape:groupmode="layer"
     id="layer1"
     transform="translate(283.10502,-116.23671)">
    
<g
       aria-label="V"
       transform="scale(0.83731883,1.1942882)"
       style="font-style:normal;font-variant:normal;font-weight:normal;font-stretch:normal;font-size:66.7964859px;line-height:1.25;font-family:'Open Sans';-inkscape-font-specification:'Open Sans, Normal';font-variant-ligatures:normal;font-variant-caps:normal;font-variant-numeric:normal;font-feature-settings:normal;text-align:start;letter-spacing:0px;word-spacing:0px;writing-mode:lr-tb;text-anchor:start;fill:#6f42c1;fill-opacity:1;stroke:none;stroke-width:1.7891916"
       id="text839">
      <path
         style="font-style:normal;font-variant:normal;font-weight:normal;font-stretch:normal;font-size:171.7624054px;font-family:'Liberation Serif';-inkscape-font-specification:'Liberation Serif';fill:#6f42c1;fill-opacity:1;stroke-width:1.7891916"
         d="M 30.806641 82.037109 L 30.806641 89.349609 L 38.53125 92.054688 L 76.802734 219.46094 L 86.142578 219.46094 L 122.51953 92.054688 L 131.4375 89.349609 L 131.4375 82.037109 L 103.69922 82.037109 L 103.69922 89.349609 L 113.17969 92.054688 L 88.460938 180.09766 L 61.986328 92.054688 L 71.746094 89.349609 L 71.746094 82.037109 L 30.806641 82.037109 z M 150.625 131.51953 L 138.7832 149.46484 L 150.625 167.41016 L 162.4668 149.46484 L 150.625 131.51953 z "
         transform="matrix(1.1942882,0,0,0.83731883,-299.72285,124.83788)"
         id="path831" />
    </g>



<g
       aria-label="B"
       transform="scale(0.83731883,1.1942882)"
       style="font-style:normal;font-variant:normal;font-weight:normal;font-stretch:normal;font-size:66.79557037px;line-height:1.25;font-family:'Open Sans';-inkscape-font-specification:'Open Sans, Normal';font-variant-ligatures:normal;font-variant-caps:normal;font-variant-numeric:normal;font-feature-settings:normal;text-align:start;letter-spacing:0px;word-spacing:0px;writing-mode:lr-tb;text-anchor:start;fill:#6f42c1;fill-opacity:1;stroke:none;stroke-width:1.78916705"
       id="text837">
      <path
         d="m -20.099875,221.42245 q 0,-4.78043 -1.006406,-8.21899 -0.92254,-3.52242 -3.103087,-5.78684 -2.180548,-2.34828 -5.70297,-3.43855 -3.438556,-1.09028 -8.386721,-1.09028 h -11.657542 v 39.16599 h 12.32848 q 5.115899,0 8.470588,-1.42574 3.438555,-1.42574 5.451368,-4.02563 2.012813,-2.68375 2.767618,-6.45777 0.838672,-3.85789 0.838672,-8.72219 z m 8.470588,51.9138 q 0,-11.15434 -5.619103,-16.60571 -5.535236,-5.45137 -18.199184,-5.45137 h -14.509027 v 45.62376 q 4.025626,0.16774 7.715783,0.25161 3.103087,0.16773 6.290041,0.2516 3.186954,0 5.032032,0 5.283634,0 8.973791,-1.67735 3.690158,-1.67734 5.954572,-4.78043 2.264415,-3.10308 3.270821,-7.54805 1.090274,-4.44496 1.090274,-10.06406 z m -79.254511,32.79208 v -6.12231 l 14.509027,-2.26441 v -95.77635 l -14.509027,-2.18055 v -6.12231 h 54.597552 q 12.496214,0 20.882935,1.76121 8.3867203,1.76121 13.4187527,5.03204 5.1158997,3.27082 7.2125799,7.96738 2.1805473,4.69656 2.1805473,10.65114 0,5.6191 -1.9289457,10.14793 -1.8450786,4.52883 -5.03203245,7.96738 -3.18695385,3.35469 -7.38031425,5.61911 -4.1933605,2.18054 -8.8060565,3.18695 8.3028533,0.83867 14.257425,3.10309 6.0384389,2.26441 9.8963304,5.78683 3.9417586,3.52243 5.7868376,8.21899 1.845078,4.6127 1.845078,10.2318 0,7.29645 -2.599883,13.41875 -2.599884,6.12231 -8.3028536,10.56727 -5.61910293,4.36109 -14.5090269,6.87711 -8.8060565,2.43215 -21.3022705,2.43215 -10.064065,0 -19.960395,-0.2516 -9.896331,-0.2516 -18.283052,-0.2516 z"
         style="font-style:normal;font-variant:normal;font-weight:normal;font-stretch:normal;font-size:171.76004028px;font-family:'Liberation Serif';-inkscape-font-specification:'Liberation Serif';fill:#6f42c1;fill-opacity:1;stroke-width:1.78916705"
         id="path827" />
    </g>





    <path
       style="fill:#6f42c1;fill-opacity:1;fill-rule:evenodd;stroke-width:1.06112659"
       d="m -99.535018,126.23671 a 173.57001,173.57001 0 0 0 -173.570002,173.56998 173.57001,173.57001 0 0 0 173.570002,173.56999 173.57001,173.57001 0 0 0 173.57,-173.56999 173.57001,173.57001 0 0 0 -173.57,-173.56998 z m 0,10.84808 A 162.72188,162.72188 0 0 1 63.186852,299.80669 162.72188,162.72188 0 0 1 -99.535018,462.52856 162.72188,162.72188 0 0 1 -262.25689,299.80669 162.72188,162.72188 0 0 1 -99.535018,137.08479 Z"
       id="path12"
       inkscape:connector-curvature="0" />
  </g>
</svg>
